<svg width="511" height="512" viewBox="0 0 511 512" fill="none" xmlns="http://www.w3.org/2000/svg">
<path d="M508.48 422.954L376.474 290.949C398.325 248.69 404.345 200.01 393.446 153.701C382.548 107.392 355.45 66.5065 317.045 38.4283C278.641 10.3501 231.462 -3.07001 184.029 0.591731C136.596 4.25348 92.0356 24.7556 58.3956 58.3956C24.7557 92.0356 4.25348 136.596 0.591731 184.029C-3.07001 231.462 10.3501 278.641 38.4283 317.045C66.5065 355.45 107.392 382.548 153.701 393.446C200.01 404.345 248.69 398.325 290.949 376.474L330.271 415.796C331.728 417.247 333.698 418.063 335.754 418.068H369.977C371.321 418.068 372.61 418.602 373.56 419.552C374.51 420.503 375.044 421.792 375.044 423.136V457.273C375.044 459.331 375.861 461.305 377.315 462.761C378.769 464.217 380.742 465.037 382.8 465.039H418.591C419.933 465.039 421.22 465.572 422.17 466.52C423.12 467.468 423.656 468.754 423.658 470.096V504.234C423.657 505.253 423.857 506.263 424.246 507.205C424.635 508.147 425.206 509.003 425.926 509.725C426.646 510.446 427.502 511.018 428.444 511.409C429.385 511.799 430.395 512 431.414 512H502.986C504.005 512.001 505.015 511.802 505.957 511.413C506.899 511.024 507.755 510.452 508.476 509.732C509.198 509.012 509.77 508.156 510.16 507.215C510.551 506.273 510.752 505.264 510.752 504.244V428.448C510.75 426.389 509.933 424.414 508.48 422.954ZM495.23 496.563H439.17V470.139C439.164 464.683 436.994 459.452 433.136 455.594C429.278 451.736 424.047 449.566 418.591 449.56H390.556V423.136C390.55 417.679 388.38 412.447 384.523 408.587C380.665 404.727 375.434 402.555 369.977 402.546H338.965L298.896 362.477C298.811 362.349 298.725 362.221 298.629 362.104C297.494 360.632 295.868 359.616 294.047 359.242C292.226 358.868 290.332 359.161 288.708 360.066C249.95 381.612 204.71 388.423 161.326 379.243C117.942 370.063 79.338 345.511 52.6291 310.112C25.9203 274.713 12.9065 230.853 15.9864 186.616C19.0662 142.378 38.032 100.745 69.3884 69.3884C100.745 38.032 142.378 19.0662 186.616 15.9864C230.853 12.9065 274.713 25.9203 310.112 52.6291C345.511 79.338 370.063 117.942 379.243 161.326C388.423 204.71 381.612 249.95 360.066 288.708C359.161 290.347 358.879 292.258 359.271 294.089C359.663 295.92 360.703 297.547 362.2 298.672C362.299 298.753 362.402 298.828 362.509 298.896L495.23 431.659V496.563Z" fill="#091C3A"/>
<path d="M268.47 283.203C252.611 296.267 233.371 304.563 212.985 307.129C192.599 309.695 171.903 306.425 153.301 297.699C134.699 288.972 118.954 275.148 107.895 257.831C96.836 240.514 90.9165 220.415 90.824 199.868C90.7315 179.321 96.4698 159.17 107.373 141.754C118.275 124.338 133.895 110.372 152.417 101.479C170.94 92.5855 191.606 89.1292 212.014 91.5114C232.423 93.8936 251.737 102.017 267.713 114.937C269.089 116.069 270.817 116.684 272.599 116.676C274.203 116.677 275.767 116.181 277.077 115.256C278.387 114.331 279.378 113.023 279.914 111.511C280.45 110 280.504 108.36 280.069 106.816C279.634 105.273 278.731 103.902 277.485 102.893C259.225 88.1121 237.146 78.8159 213.813 76.0843C190.479 73.3527 166.85 77.2978 145.67 87.4613C124.49 97.6248 106.628 113.589 94.1603 133.5C81.6924 153.411 75.1301 176.451 75.2356 199.944C75.3412 223.436 82.1104 246.416 94.7568 266.214C107.403 286.012 125.408 301.816 146.678 311.788C167.949 321.761 191.613 325.493 214.92 322.552C238.228 319.611 260.223 310.117 278.349 295.173C279.936 293.863 280.938 291.976 281.134 289.927C281.33 287.879 280.704 285.836 279.394 284.249C278.084 282.661 276.198 281.66 274.149 281.463C272.1 281.267 270.058 281.893 268.47 283.203Z" fill="#00B2FF"/>
<path d="M363.301 199.395C363.301 197.335 362.483 195.36 361.026 193.904C359.57 192.447 357.595 191.629 355.535 191.629H320.138C318.082 191.629 316.109 192.446 314.654 193.9C313.2 195.355 312.383 197.328 312.383 199.385C312.383 201.441 313.2 203.414 314.654 204.869C316.109 206.323 318.082 207.14 320.138 207.14H355.535C356.553 207.142 357.562 206.942 358.504 206.554C359.445 206.165 360.301 205.595 361.022 204.876C361.743 204.157 362.316 203.303 362.707 202.362C363.098 201.422 363.3 200.414 363.301 199.395Z" fill="#00B2FF"/>
<path d="M285.701 199.395C285.702 198.376 285.503 197.366 285.114 196.424C284.724 195.482 284.153 194.626 283.433 193.904C282.713 193.183 281.857 192.611 280.916 192.22C279.974 191.83 278.965 191.629 277.945 191.629H219.271C217.214 191.629 215.242 192.446 213.787 193.9C212.333 195.355 211.516 197.328 211.516 199.385C211.516 201.441 212.333 203.414 213.787 204.869C215.242 206.323 217.214 207.14 219.271 207.14H277.945C278.963 207.142 279.971 206.942 280.912 206.554C281.853 206.165 282.708 205.595 283.429 204.876C284.149 204.156 284.72 203.302 285.11 202.362C285.5 201.421 285.701 200.413 285.701 199.395Z" fill="#00B2FF"/>
<path d="M118.438 199.395C118.439 200.414 118.641 201.422 119.032 202.362C119.423 203.303 119.995 204.157 120.717 204.876C121.438 205.595 122.294 206.165 123.235 206.554C124.177 206.942 125.185 207.142 126.204 207.14H177.111C179.168 207.14 181.141 206.323 182.596 204.869C184.05 203.414 184.867 201.441 184.867 199.385C184.867 197.328 184.05 195.355 182.596 193.9C181.141 192.446 179.168 191.629 177.111 191.629H126.161C124.109 191.64 122.144 192.463 120.697 193.919C119.25 195.374 118.437 197.343 118.438 199.395Z" fill="#00B2FF"/>
<path d="M250.313 145.119C250.311 146.138 250.511 147.147 250.9 148.089C251.289 149.03 251.861 149.886 252.581 150.606C253.301 151.327 254.157 151.898 255.099 152.287C256.04 152.676 257.049 152.876 258.068 152.875H340.02C342.077 152.875 344.049 152.057 345.504 150.603C346.958 149.149 347.775 147.176 347.775 145.119C347.775 143.062 346.958 141.089 345.504 139.635C344.049 138.18 342.077 137.363 340.02 137.363H258.068C257.05 137.363 256.041 137.564 255.1 137.954C254.159 138.343 253.304 138.915 252.584 139.635C251.864 140.355 251.293 141.21 250.903 142.151C250.513 143.092 250.313 144.1 250.313 145.119Z" fill="#00B2FF"/>
<path d="M215.865 152.832C217.922 152.832 219.894 152.014 221.349 150.56C222.803 149.106 223.621 147.133 223.621 145.076C223.621 143.019 222.803 141.046 221.349 139.592C219.894 138.137 217.922 137.32 215.865 137.32H149.435C147.378 137.32 145.406 138.137 143.951 139.592C142.497 141.046 141.68 143.019 141.68 145.076C141.68 147.133 142.497 149.106 143.951 150.56C145.406 152.014 147.378 152.832 149.435 152.832H215.865Z" fill="#00B2FF"/>
<path d="M301.222 245.953H265.826C264.807 245.953 263.799 246.154 262.858 246.543C261.917 246.933 261.062 247.505 260.342 248.225C259.622 248.945 259.05 249.8 258.661 250.741C258.271 251.682 258.07 252.69 258.07 253.709C258.07 254.727 258.271 255.736 258.661 256.677C259.05 257.618 259.622 258.473 260.342 259.193C261.062 259.913 261.917 260.484 262.858 260.874C263.799 261.264 264.807 261.464 265.826 261.464H301.222C302.241 261.464 303.249 261.264 304.19 260.874C305.131 260.484 305.986 259.913 306.706 259.193C307.427 258.473 307.998 257.618 308.388 256.677C308.777 255.736 308.978 254.727 308.978 253.709C308.978 252.69 308.777 251.682 308.388 250.741C307.998 249.8 307.427 248.945 306.706 248.225C305.986 247.505 305.131 246.933 304.19 246.543C303.249 246.154 302.241 245.953 301.222 245.953Z" fill="#00B2FF"/>
<path d="M149.435 261.464H223.631C224.65 261.464 225.658 261.264 226.599 260.874C227.54 260.484 228.395 259.913 229.115 259.193C229.835 258.473 230.407 257.618 230.796 256.677C231.186 255.736 231.387 254.727 231.387 253.709C231.387 252.69 231.186 251.682 230.796 250.741C230.407 249.8 229.835 248.945 229.115 248.225C228.395 247.505 227.54 246.933 226.599 246.543C225.658 246.154 224.65 245.953 223.631 245.953H149.435C148.417 245.953 147.408 246.154 146.467 246.543C145.526 246.933 144.671 247.505 143.951 248.225C143.231 248.945 142.66 249.8 142.27 250.741C141.88 251.682 141.68 252.69 141.68 253.709C141.68 254.727 141.88 255.736 142.27 256.677C142.66 257.618 143.231 258.473 143.951 259.193C144.671 259.913 145.526 260.484 146.467 260.874C147.408 261.264 148.417 261.464 149.435 261.464Z" fill="#00B2FF"/>
</svg>
