<svg width="512" height="512" viewBox="0 0 512 512" fill="none" xmlns="http://www.w3.org/2000/svg">
<path d="M210.656 183.375H442.729" stroke="#091C3A" stroke-width="14.6484" stroke-miterlimit="10" stroke-linecap="round" stroke-linejoin="round"/>
<path d="M210.656 238.453H442.729" stroke="#091C3A" stroke-width="14.6484" stroke-miterlimit="10" stroke-linecap="round" stroke-linejoin="round"/>
<path d="M183.023 293.559H272.654" stroke="#091C3A" stroke-width="14.6484" stroke-miterlimit="10" stroke-linecap="round" stroke-linejoin="round"/>
<path d="M85.5078 293.559H143.051" stroke="#091C3A" stroke-width="14.6484" stroke-miterlimit="10" stroke-linecap="round" stroke-linejoin="round"/>
<mask id="mask0_10447_298" style="mask-type:luminance" maskUnits="userSpaceOnUse" x="0" y="0" width="512" height="512">
<path d="M0 0H512V512H0V0Z" fill="white"/>
</mask>
<g mask="url(#mask0_10447_298)">
<path d="M99.8204 168.694C94.3214 168.694 83.0104 171.613 83.0104 188.508V199.167C83.0104 210.024 75.7824 210.79 71.9844 212.547" stroke="#091C3A" stroke-width="14.6484" stroke-miterlimit="10" stroke-linecap="round" stroke-linejoin="round"/>
<path d="M99.8204 256.375C94.3214 256.375 83.0104 253.455 83.0104 236.56V225.901C83.0104 215.044 75.7824 214.279 71.9844 212.55" stroke="#091C3A" stroke-width="14.6484" stroke-miterlimit="10" stroke-linecap="round" stroke-linejoin="round"/>
<path d="M139.141 167.527C144.64 167.527 155.95 170.419 155.95 187.342V198.001C155.95 208.858 163.179 209.623 166.977 211.352" stroke="#091C3A" stroke-width="14.6484" stroke-miterlimit="10" stroke-linecap="round" stroke-linejoin="round"/>
<path d="M139.141 255.18C144.64 255.18 155.95 252.289 155.95 235.366V224.735C155.95 213.878 163.179 213.113 166.977 211.355" stroke="#091C3A" stroke-width="14.6484" stroke-miterlimit="10" stroke-linecap="round" stroke-linejoin="round"/>
<path d="M84.5234 348.641H267.67" stroke="#091C3A" stroke-width="14.6484" stroke-miterlimit="10" stroke-linecap="round" stroke-linejoin="round"/>
<path d="M83.5234 403.746H266.67" stroke="#091C3A" stroke-width="14.6484" stroke-miterlimit="10" stroke-linecap="round" stroke-linejoin="round"/>
<path d="M432.674 89.1523C441.518 89.1523 448.718 81.9513 448.718 73.1073C448.718 64.2633 441.518 57.0633 432.674 57.0633C423.83 57.0633 416.602 64.2633 416.602 73.1073C416.602 81.9513 423.83 89.1523 432.674 89.1523Z" stroke="#091C3A" stroke-width="14.6484" stroke-miterlimit="10" stroke-linecap="round" stroke-linejoin="round"/>
<path d="M364.474 89.1523C373.319 89.1523 380.519 81.9513 380.519 73.1073C380.519 64.2633 373.319 57.0633 364.474 57.0633C355.63 57.0633 348.43 64.2633 348.43 73.1073C348.43 81.9513 355.63 89.1523 364.474 89.1523Z" stroke="#091C3A" stroke-width="14.6484" stroke-miterlimit="10" stroke-linecap="round" stroke-linejoin="round"/>
<path d="M296.264 89.1523C305.108 89.1523 312.308 81.9513 312.308 73.1073C312.308 64.2633 305.108 57.0633 296.264 57.0633C287.419 57.0633 280.219 64.2633 280.219 73.1073C280.219 81.9513 287.419 89.1523 296.264 89.1523Z" stroke="#091C3A" stroke-width="14.6484" stroke-miterlimit="10" stroke-linecap="round" stroke-linejoin="round"/>
<path d="M58.269 25.7643H453.704C481.624 25.7643 504.5 48.6123 504.5 76.5343V435.439C504.5 463.39 481.624 486.238 453.704 486.238H58.269C30.348 486.238 7.5 463.39 7.5 435.439V76.5343C7.5 48.6123 30.348 25.7643 58.269 25.7643Z" stroke="#091C3A" stroke-width="14.6484" stroke-miterlimit="10" stroke-linecap="round" stroke-linejoin="round"/>
<path d="M126.13 121.809H7.5M504.5 121.809H160.741" stroke="#091C3A" stroke-width="14.6484" stroke-miterlimit="10" stroke-linecap="round" stroke-linejoin="round"/>
<path d="M330.905 296.623L316.251 311.279C313.218 314.284 313.218 319.244 316.251 322.277L322.231 328.259C320.105 332.227 318.377 336.451 317.129 340.873H308.54C304.259 340.873 300.773 344.388 300.773 348.669V369.362C300.773 373.643 304.259 377.158 308.54 377.158H317.469C318.773 381.438 320.503 385.549 322.6 389.404L316.251 395.754C313.218 398.787 313.218 403.748 316.251 406.781L330.905 421.408C333.91 424.441 338.871 424.441 341.904 421.408L348.254 415.058C352.109 417.184 356.218 418.914 360.5 420.189V429.119C360.5 433.399 364.014 436.914 368.295 436.914H388.988C393.297 436.914 396.783 433.399 396.783 429.119V420.529C401.205 419.282 405.428 417.553 409.426 415.455L415.379 421.408C418.411 424.441 423.372 424.441 426.405 421.408L441.032 406.781C444.065 403.748 444.065 398.787 441.032 395.754L435.39 390.113C437.687 386.059 439.557 381.722 440.919 377.158H448.742C453.022 377.158 456.538 373.643 456.538 369.362V348.669C456.538 344.388 453.022 340.873 448.742 340.873H441.259C439.926 336.196 438.084 331.717 435.788 327.522L441.032 322.277C444.065 319.244 444.065 314.284 441.032 311.279L426.405 296.623C423.372 293.59 418.411 293.59 415.379 296.623L410.134 301.867C405.939 299.571 401.488 297.728 396.783 296.396V288.913C396.783 284.632 393.297 281.145 388.988 281.145H368.295C364.014 281.145 360.5 284.632 360.5 288.913V296.736C355.964 298.097 351.627 299.968 347.545 302.264L341.904 296.623C338.871 293.59 333.91 293.59 330.905 296.623Z" stroke="#00B2FF" stroke-width="14.6484" stroke-miterlimit="10" stroke-linecap="round" stroke-linejoin="round"/>
<path d="M378.64 390.992C396.243 390.992 410.615 376.62 410.615 359.016C410.615 341.413 396.243 327.041 378.64 327.041C361.036 327.041 346.664 341.413 346.664 359.016C346.664 376.62 361.036 390.992 378.64 390.992Z" stroke="#00B2FF" stroke-width="14.6484" stroke-miterlimit="10" stroke-linecap="round" stroke-linejoin="round"/>
</g>
</svg>
