<svg width="586" height="528" viewBox="0 0 586 528" fill="none" xmlns="http://www.w3.org/2000/svg">
<path d="M467.821 427.888V520H8V106.449H467.821V236.602" stroke="#091C3A" stroke-width="14.6484" stroke-miterlimit="10" stroke-linecap="round" stroke-linejoin="round"/>
<path d="M376.13 273.254H89.5078V171.316H384.518V263.534" stroke="#091C3A" stroke-width="14.6484" stroke-miterlimit="10" stroke-linecap="round" stroke-linejoin="round"/>
<circle cx="93.7058" cy="57.2292" r="14.4948" fill="#091C3A"/>
<circle cx="152.026" cy="57.2292" r="14.4948" fill="#091C3A"/>
<circle cx="210.315" cy="57.2292" r="14.4948" fill="#091C3A"/>
<path d="M8 106.452V8H467.821V129.41" stroke="#091C3A" stroke-width="14.6484" stroke-miterlimit="10" stroke-linecap="round" stroke-linejoin="round"/>
<path d="M89.5078 331.594H354.22" stroke="#091C3A" stroke-width="14.6484" stroke-miterlimit="10" stroke-linecap="round" stroke-linejoin="round"/>
<path d="M220.867 467.037L220.867 372.898H77.9111L77.9111 467.037H220.867Z" stroke="#091C3A" stroke-width="14.6484" stroke-miterlimit="10" stroke-linecap="round" stroke-linejoin="round"/>
<path d="M386.303 401.993V455.443H266.539V384.496H371.831" stroke="#091C3A" stroke-width="14.6484" stroke-miterlimit="10" stroke-linecap="round" stroke-linejoin="round"/>
<path d="M478.594 314.316L448.549 347.849L429.453 327.421" stroke="#00B2FF" stroke-width="14.6484" stroke-miterlimit="10" stroke-linecap="round" stroke-linejoin="round"/>
<path d="M452.064 427.006C504.497 427.006 547.003 384.385 547.003 331.808C547.003 279.231 504.497 236.609 452.064 236.609C399.631 236.609 357.125 279.231 357.125 331.808C357.125 384.385 399.631 427.006 452.064 427.006Z" stroke="#00B2FF" stroke-width="14.6484" stroke-miterlimit="10" stroke-linecap="round" stroke-linejoin="round"/>
<path d="M521.898 401.828L578.524 458.61" stroke="#00B2FF" stroke-width="14.6484" stroke-miterlimit="10" stroke-linecap="round" stroke-linejoin="round"/>
</svg>
