<svg width="512" height="512" viewBox="0 0 512 512" fill="none" xmlns="http://www.w3.org/2000/svg">
<path d="M307.133 52.1678C307.133 48.7201 309.929 45.9239 313.377 45.9239H330.217C333.665 45.9239 336.461 48.7201 336.461 52.1678C336.461 55.6155 333.665 58.4117 330.217 58.4117H313.377C309.929 58.4117 307.133 55.6155 307.133 52.1678ZM374.997 58.4117H391.837C395.285 58.4117 398.081 55.6155 398.081 52.1678C398.081 48.7201 395.285 45.9239 391.837 45.9239H374.997C371.549 45.9239 368.753 48.7201 368.753 52.1678C368.753 55.6155 371.549 58.4117 374.997 58.4117ZM251.757 58.1391H268.597C272.045 58.1391 274.841 55.3428 274.841 51.8952C274.841 48.4475 272.045 45.6513 268.597 45.6513H251.757C248.309 45.6513 245.513 48.4475 245.513 51.8952C245.513 55.3428 248.309 58.1391 251.757 58.1391ZM39.7716 58.1391H197.799C201.247 58.1391 204.043 55.3428 204.043 51.8952C204.043 48.4475 201.247 45.6513 197.799 45.6513H39.7716C36.3239 45.6513 33.5277 48.4475 33.5277 51.8952C33.5277 55.3428 36.3239 58.1391 39.7716 58.1391ZM499.506 499.505C491.423 507.589 480.591 512 468.894 512C468.503 512 468.112 511.995 467.72 511.984C455.693 511.683 444.314 506.759 435.677 498.123L385.337 447.783C382.899 445.344 382.899 441.391 385.337 438.954L391.576 432.715L388.085 429.225H29.6856C13.3172 429.225 0 415.907 0 399.54V29.6846C0 13.3162 13.3172 0 29.6856 0H418.611C434.979 0 448.296 13.3172 448.296 29.6846V385.849L498.124 435.678C506.76 444.313 511.682 455.693 511.985 467.719C512.29 479.864 507.859 491.153 499.507 499.504L499.506 499.505ZM12.4878 29.6846V91.8468H435.809V29.6846C435.809 20.2021 428.093 12.4878 418.611 12.4878H29.6856C20.2032 12.4878 12.4878 20.2021 12.4878 29.6846ZM375.598 416.737L357.54 398.679C344.882 404.93 331.069 408.081 317.246 408.081C294.4 408.081 271.567 399.521 253.977 382.447L253.686 384.613C253.328 387.281 251.299 389.42 248.653 389.918C240.595 391.435 232.35 392.205 224.147 392.205C215.943 392.205 207.698 391.435 199.64 389.918C196.995 389.42 194.966 387.282 194.608 384.613L191.781 363.569C185.725 361.667 179.835 359.222 174.187 356.27L157.306 369.153C155.166 370.786 152.221 370.865 149.997 369.347C136.333 360.019 124.672 348.358 115.337 334.686C113.82 332.463 113.897 329.517 115.531 327.378L128.408 310.504C125.458 304.862 123.013 298.967 121.109 292.901L100.072 290.075C97.4038 289.717 95.2653 287.689 94.7668 285.042C93.2495 276.989 92.4805 268.744 92.4805 260.536C92.4805 252.329 93.2495 244.085 94.7668 236.029C95.2653 233.383 97.4038 231.354 100.072 230.996L121.113 228.17C123.016 222.109 125.46 216.217 128.412 210.573L115.531 193.693C113.898 191.554 113.82 188.609 115.337 186.386C124.665 172.721 136.326 161.059 149.998 151.725C152.222 150.206 155.167 150.284 157.307 151.918L174.187 164.801C179.831 161.849 185.722 159.405 191.782 157.502L194.61 136.458C194.968 133.79 196.996 131.652 199.642 131.153C215.759 128.118 232.541 128.12 248.655 131.153C251.3 131.652 253.33 133.789 253.688 136.458L256.515 157.502C262.573 159.405 268.464 161.849 274.109 164.801L290.991 151.918C293.13 150.286 296.075 150.206 298.299 151.725C311.963 161.052 323.624 172.713 332.96 186.384C334.477 188.607 334.4 191.554 332.767 193.692L319.889 210.567C322.625 215.802 324.907 221.26 326.746 226.866C332.772 227.488 338.667 228.704 344.368 230.478L348.225 230.996C349.895 231.221 351.356 232.098 352.338 233.371C363.108 237.878 373.003 244.482 381.508 252.986C409.747 281.225 415.455 323.569 398.681 357.539L432.717 391.575L435.81 388.482V104.336H12.4878V399.54C12.4878 409.022 20.2032 416.737 29.6856 416.737H375.598ZM372.677 372.677C403.24 342.112 403.24 292.381 372.677 261.816C363.795 252.934 353.15 246.468 341.54 242.698L321.506 240.006C320.478 239.868 319.534 239.47 318.723 238.893C318.231 238.883 317.742 238.856 317.248 238.856C296.309 238.856 276.625 247.01 261.818 261.815C231.254 292.379 231.254 342.111 261.818 372.676C277.098 387.956 297.176 395.596 317.247 395.598C337.324 395.598 357.394 387.959 372.678 372.676L372.677 372.677ZM140.797 314.853L128.246 331.3C135.345 340.914 143.773 349.344 153.383 356.438L169.838 343.882C171.835 342.359 174.551 342.179 176.732 343.428C183.77 347.463 191.284 350.58 199.066 352.692C201.491 353.35 203.284 355.397 203.619 357.886L206.373 378.392C218.131 380.15 230.167 380.15 241.923 378.392L243.085 369.741C232.426 354.697 226.889 337.125 226.465 319.44C225.693 319.47 224.921 319.487 224.149 319.487C191.643 319.487 165.198 293.042 165.198 260.536C165.198 228.03 191.644 201.585 224.149 201.585C247.307 201.585 267.925 214.94 277.528 235.478C288.618 230.079 300.763 226.99 313.373 226.464C311.614 221.864 309.502 217.397 307.046 213.115C305.795 210.935 305.974 208.218 307.499 206.221L320.051 189.772C312.951 180.158 304.522 171.729 294.912 164.635L278.457 177.191C276.46 178.714 273.744 178.894 271.564 177.644C264.528 173.612 257.013 170.495 249.229 168.381C246.805 167.724 245.012 165.677 244.677 163.188L241.922 142.682C230.166 140.925 218.131 140.925 206.371 142.682L203.617 163.188C203.283 165.678 201.489 167.724 199.064 168.381C191.275 170.496 183.76 173.612 176.729 177.644C174.548 178.893 171.832 178.714 169.835 177.191L153.382 164.635C143.768 171.733 135.34 180.164 128.245 189.773L140.799 206.226C142.323 208.223 142.502 210.94 141.253 213.119C137.22 220.152 134.103 227.666 131.989 235.457C131.33 237.88 129.283 239.674 126.794 240.008L106.291 242.762C105.412 248.638 104.967 254.599 104.967 260.537C104.967 266.475 105.412 272.436 106.291 278.312L126.79 281.065C129.279 281.399 131.326 283.193 131.985 285.617C134.102 293.416 137.219 300.933 141.248 307.959C142.499 310.139 142.321 312.856 140.797 314.853ZM252.987 252.987C257.217 248.758 261.793 245.001 266.648 241.734C259.278 225.013 242.757 214.072 224.149 214.072C198.529 214.072 177.686 234.915 177.686 260.535C177.686 286.155 198.529 306.998 224.149 306.998C225.108 306.998 226.067 306.96 227.023 306.901C229.262 287.189 237.902 268.074 252.987 252.987ZM400.406 423.886L423.886 400.407L392.153 368.673C389.05 373.189 385.518 377.497 381.508 381.508C377.497 385.518 373.19 389.051 368.673 392.154L400.406 423.886ZM499.502 468.035C499.28 459.226 495.655 450.871 489.294 444.511L443.369 398.584L398.584 443.369L444.508 489.295C450.87 495.656 459.224 499.281 468.034 499.503C476.732 499.7 484.767 496.587 490.677 490.678C496.587 484.769 499.72 476.727 499.502 468.035Z" fill="#091C3A"/>
<path d="M380 317.999C363.987 293.782 341.067 280 316.5 280C291.933 280 269.013 293.783 253 317.999C269.013 342.216 291.933 356 316.5 356C341.067 356 363.987 342.215 380 317.999ZM344.668 317.999C344.668 333.584 332.032 346.263 316.5 346.263C300.968 346.263 288.332 333.584 288.332 317.999C288.332 302.414 300.968 289.737 316.5 289.737C332.032 289.737 344.668 302.416 344.668 317.999ZM328.987 317.999C328.987 311.091 323.385 305.471 316.5 305.471C309.615 305.471 304.013 311.091 304.013 317.999C304.013 324.907 309.615 330.529 316.5 330.529C323.385 330.529 328.987 324.909 328.987 317.999Z" fill="#00B2FF"/>
</svg>
